<svg width="36" height="36" viewBox="0 0 36 36" fill="none" xmlns="http://www.w3.org/2000/svg">
<circle cx="18" cy="18" r="18" fill="#47A7FF"/>
<path d="M18 10C19.0609 10 20.0783 10.4214 20.8284 11.1716C21.5786 11.9217 22 12.9391 22 14C22 15.0609 21.5786 16.0783 20.8284 16.8284C20.0783 17.5786 19.0609 18 18 18C16.9391 18 15.9217 17.5786 15.1716 16.8284C14.4214 16.0783 14 15.0609 14 14C14 12.9391 14.4214 11.9217 15.1716 11.1716C15.9217 10.4214 16.9391 10 18 10ZM18 12C17.4696 12 16.9609 12.2107 16.5858 12.5858C16.2107 12.9609 16 13.4696 16 14C16 14.5304 16.2107 15.0391 16.5858 15.4142C16.9609 15.7893 17.4696 16 18 16C18.5304 16 19.0391 15.7893 19.4142 15.4142C19.7893 15.0391 20 14.5304 20 14C20 13.4696 19.7893 12.9609 19.4142 12.5858C19.0391 12.2107 18.5304 12 18 12ZM18 19C20.67 19 26 20.33 26 23V26H10V23C10 20.33 15.33 19 18 19ZM18 20.9C15.03 20.9 11.9 22.36 11.9 23V24.1H24.1V23C24.1 22.36 20.97 20.9 18 20.9Z" fill="white"/>
</svg>
