<svg width="19" height="22" viewBox="0 0 19 22" fill="none" xmlns="http://www.w3.org/2000/svg">
<path d="M15 21.3L14.4 20.8C12.4 18.9 11 17.7 11 16.2C11 15 12 14 13.2 14C13.9 14 14.6 14.3 15 14.8C15.4 14.3 16.1 14 16.8 14C18 14 19 14.9 19 16.2C19 17.7 17.6 18.9 15.6 20.8L15 21.3ZM14 0C15.1 0 16 0.9 16 2V11.08L15 11L14 11.08V2H9.00002V10L6.50002 7.75L4.00002 10V2H2.00002V18H9.08002C9.20002 18.72 9.45002 19.39 9.80002 20H2.00002C0.900015 20 1.52588e-05 19.1 1.52588e-05 18V2C1.52588e-05 0.9 0.900015 0 2.00002 0H14Z" fill="#383838"/>
</svg>
