<svg width="18" height="18" viewBox="0 0 18 18" fill="none" xmlns="http://www.w3.org/2000/svg">
<path d="M8.99999 0.666687C4.41666 0.666687 0.666656 4.41669 0.666656 9.00002C0.666656 13.5834 4.41666 17.3334 8.99999 17.3334C13.5833 17.3334 17.3333 13.5834 17.3333 9.00002C17.3333 4.41669 13.5833 0.666687 8.99999 0.666687ZM8.99999 15.6667C5.32499 15.6667 2.33332 12.675 2.33332 9.00002C2.33332 5.32502 5.32499 2.33335 8.99999 2.33335C12.675 2.33335 15.6667 5.32502 15.6667 9.00002C15.6667 12.675 12.675 15.6667 8.99999 15.6667ZM12.825 5.31669L7.33332 10.8084L5.17499 8.65835L3.99999 9.83335L7.33332 13.1667L14 6.50002L12.825 5.31669Z" fill="#6BC5A4"/>
</svg>
