<svg width="18" height="18" viewBox="0 0 18 18" fill="none" xmlns="http://www.w3.org/2000/svg">
<path d="M8.99999 15.6667C5.32499 15.6667 2.33332 12.675 2.33332 8.99999C2.33332 5.32499 5.32499 2.33332 8.99999 2.33332C12.675 2.33332 15.6667 5.32499 15.6667 8.99999C15.6667 12.675 12.675 15.6667 8.99999 15.6667ZM8.99999 0.666656C4.39166 0.666656 0.666656 4.39166 0.666656 8.99999C0.666656 13.6083 4.39166 17.3333 8.99999 17.3333C13.6083 17.3333 17.3333 13.6083 17.3333 8.99999C17.3333 4.39166 13.6083 0.666656 8.99999 0.666656ZM11.1583 5.66666L8.99999 7.82499L6.84166 5.66666L5.66666 6.84166L7.82499 8.99999L5.66666 11.1583L6.84166 12.3333L8.99999 10.175L11.1583 12.3333L12.3333 11.1583L10.175 8.99999L12.3333 6.84166L11.1583 5.66666Z" fill="#B7BFC7"/>
</svg>
